<svg xmlns="http://www.w3.org/2000/svg" width="86" height="11" viewBox="0 0 306.4 37.4"><style>.a{font-family:sans-serif;font-size:40px;letter-spacing:0px;line-height:100%;stroke-width:1px;word-spacing:0px;}.b{-inkscape-font-specification:'Apple Garamond, Italic';font-family:'Apple Garamond';font-size:40px;font-style:italic;line-height:100%;text-align:start;}</style><g transform="translate(-121.00914 -247.57787)"><flowRoot class="a"><flowRegion><rect width="258.6" height="44.3" x="118.2" y="169.5"/></flowRegion><flowPara>  Janasd</flowPara></flowRoot><flowRoot class="a"><flowRegion><rect width="417.4" height="210.6" x="166.2" y="93.7"/></flowRegion></flowRoot><g class="a" id="text"><path d="m137.7 253.7q0.2-1 0.6-1.3 0.4-0.4 1.2-0.5 0.7-0.1 1.1-0.1 0.4 0 0.4-0.6 0-0.7-1-0.7-0.4 0-1.3 0.2-0.8 0.1-2.2 0.1-1.6 0-2.7-0.2-1-0.2-1.4-0.2-1.1 0-1.1 0.7 0 0.3 0.1 0.4 0.2 0.1 0.4 0.1 0.2 0 0.5 0 0.3 0 0.6 0.1 0.6 0.2 0.8 0.5 0.2 0.3 0.2 0.9 0 0.3-0.1 0.7 0 0.4-0.2 0.9l-4.6 19.8q-0.8 3.4-1.4 5.1-0.7 1.8-1.8 1.8-0.4 0-0.6-0.4-0.2-0.3-0.4-1-0.3-1-0.8-1.4-0.5-0.5-1.2-0.5-0.8 0-1.3 0.6-0.5 0.6-0.5 1.6 0 1.2 0.8 2 0.8 0.8 2.1 0.8 1.4 0 2.8-0.8 1.4-0.8 2.7-2.3 1.3-1.5 2.3-3.7 1.1-2.2 1.8-5l4.2-17.6z" class="b"/><path d="m156.4 258q0.1-0.2 0.1-0.3 0-0.2 0-0.2 0-0.6-1.2-0.6-1 0-1.3 0.2-0.2 0.2-0.5 0.5l-0.3 0.4q-0.7-0.3-1.3-0.5-0.6-0.2-1.2-0.2-1.7 0-3.7 1.1-2 1.1-4 3.4-2.2 2.5-3.2 5.3-1.1 2.7-1.1 5 0 2.2 0.8 3.2 0.8 1.1 2.3 1.1 1.7 0 3.9-2.2 2.3-2.2 4.9-7l-1.2 4.8q-0.4 1.8-0.4 2.4 0 1.9 1.6 1.9 1.8 0 4.2-3.2 1.5-2.1 1.5-2.9 0-0.5-0.4-0.5-0.2 0-0.5 0.6-0.3 0.6-1 1.6-0.4 0.7-0.8 1.1-0.4 0.4-0.7 0.4-0.2 0-0.3-0.2-0.1-0.2-0.1-0.5 0-0.2 0-0.4 0-0.3 0.2-0.7l3.7-13.5zm-5.7 0.5q1.9 0 1.9 1.8 0 1-0.8 2.7-0.8 1.7-2.4 4.2-1.9 3-3.2 4.6-1.4 1.5-2.6 1.5-0.6 0-0.9-0.6-0.3-0.6-0.3-1.7 0-0.6 0.2-1.5 0.2-0.9 0.6-2 0.4-1.1 1-2.3 0.6-1.2 1.4-2.4 1.4-2.2 2.8-3.2 1.4-1.1 2.6-1.1z" class="b"/><path d="m174.3 263q0.7-2.2 0.7-3.6 0-1-0.6-1.6-0.6-0.6-1.8-0.6-2.1 0-4.3 2.2-2.2 2.2-4.4 6.6l0.6-2.2q0.4-1.6 0.6-2.8 0.2-1.2 0.2-2 0-0.8-0.4-1.2-0.4-0.4-1-0.4-1.6 0-3.8 2.6-1 1.1-1.5 1.9-0.4 0.8-0.4 1 0 0.4 0.3 0.4 0.2 0 0.6-0.5 0.4-0.5 0.8-1.1 0.4-0.6 0.9-1.1 0.4-0.5 0.8-0.5 0.4 0 0.4 0.4 0 0.6-0.7 3.2l-2.8 10.2q-0.1 0.4-0.2 0.7 0 0.2 0 0.3 0 0.2 0.2 0.4 0.2 0.2 0.4 0.2l1.6 0q0.6 0 0.9-0.3 0.3-0.4 0.6-1.2 0.3-0.8 0.7-2.2 0.4-1.4 1.3-3.4 1-2.3 2-4 1-1.7 2-2.8 1-1.2 1.7-1.7 0.8-0.6 1.2-0.6 0.8 0 0.8 1 0 0.3-0.1 0.8-0.1 0.4-0.3 1.1l-1.4 4.6q-0.8 2.7-1.2 4.5-0.4 1.8-0.4 2.8 0 1.9 1.6 1.9 1.1 0 2.2-1 1.2-1 2.6-2.9 0.7-0.9 1-1.6 0.3-0.7 0.3-0.9 0-0.4-0.4-0.4-0.4 0-0.6 0.5-0.2 0.5-0.6 1.2-0.7 1-1.2 1.6-0.5 0.5-1 0.5-0.5 0-0.5-0.8 0-0.4 0.1-0.8 0.1-0.4 0.3-1l2.4-7.6z" class="b"/><path d="m194.6 258q0.1-0.2 0.1-0.3 0-0.2 0-0.2 0-0.6-1.2-0.6-1 0-1.3 0.2-0.2 0.2-0.5 0.5l-0.3 0.4q-0.7-0.3-1.3-0.5-0.6-0.2-1.2-0.2-1.7 0-3.7 1.1-2 1.1-4 3.4-2.2 2.5-3.2 5.3-1.1 2.7-1.1 5 0 2.2 0.8 3.2 0.8 1.1 2.3 1.1 1.7 0 3.9-2.2 2.3-2.2 4.9-7l-1.2 4.8q-0.4 1.8-0.4 2.4 0 1.9 1.6 1.9 1.8 0 4.2-3.2 1.5-2.1 1.5-2.9 0-0.5-0.4-0.5-0.2 0-0.5 0.6-0.3 0.6-1 1.6-0.4 0.7-0.8 1.1-0.4 0.4-0.7 0.4-0.2 0-0.3-0.2-0.1-0.2-0.1-0.5 0-0.2 0-0.4 0-0.3 0.2-0.7l3.7-13.5zm-5.7 0.5q1.9 0 1.9 1.8 0 1-0.8 2.7-0.8 1.7-2.4 4.2-1.9 3-3.2 4.6-1.4 1.5-2.6 1.5-0.6 0-0.9-0.6-0.3-0.6-0.3-1.7 0-0.6 0.2-1.5 0.2-0.9 0.6-2 0.4-1.1 1-2.3 0.6-1.2 1.4-2.4 1.4-2.2 2.8-3.2 1.4-1.1 2.6-1.1z" class="b"/><path d="m211.1 253.7q0-0.2 0-0.4 0-0.2 0-0.5 0-0.6 0.2-0.8 0.2-0.2 0.5-0.4 0.3-0.1 0.5-0.2 0.2-0.1 0.2-0.4 0-0.2-0.2-0.4-0.1-0.2-0.3-0.2-0.3 0-1.2 0.1-0.9 0.1-2.3 0.1-1 0-1.7-0.1-0.7-0.1-1.1-0.1-0.6 0-0.6 0.6 0 0.3 0.1 0.4 0.2 0.1 0.4 0.2 0.2 0 0.5 0.1 0.2 0 0.5 0.2 0.4 0.2 0.5 0.6 0.1 0.4 0.2 0.8l2.6 21.8q0.1 0.6 0.2 0.8 0.1 0.3 0.6 0.3 0.4 0 0.6-0.5 0.3-0.5 0.8-1.5l5-9.5 1.3 10.4q0.1 0.6 0.2 0.8 0.1 0.3 0.5 0.3 0.4 0 0.7-0.5 0.3-0.5 0.8-1.4l10.6-20q0.4-0.7 0.7-1.2 0.4-0.6 1-0.8 0.7-0.3 1.1-0.4 0.4-0.1 0.4-0.6 0-0.3-0.2-0.5-0.2-0.2-0.5-0.2-0.4 0-0.9 0.1-0.4 0.1-0.8 0.1-1.2 0-2-0.1-0.8-0.1-1.2-0.1-0.7 0-0.7 0.7 0 0.4 0.3 0.5 0.3 0.1 0.6 0.2 0.4 0.1 0.6 0.2 0.3 0.1 0.3 0.5 0 1.2-3.8 8.2l-5.1 9.4-1.1-10.1q0-0.1 0-0.1 0-0.1 0-0.2 0-0.3 0.1-0.5 0.1-0.2 0.2-0.4l2.8-5.2q0.4-0.7 0.8-1.2 0.4-0.5 1.3-0.8 0.6-0.2 0.9-0.2 0.4 0 0.4-0.6 0-0.2-0.2-0.3-0.1-0.2-0.4-0.2-0.3 0-0.8 0.1-0.4 0.1-1 0.1-0.7 0-1.3-0.1-0.6-0.1-1-0.1-0.6 0-0.6 0.5 0 0.3 0.2 0.4 0.2 0.1 0.4 0.2 0.2 0.1 0.4 0.2 0.2 0.1 0.2 0.3 0 0.1-0.1 0.4-0.1 0.3-0.3 0.6l-2.3 4.2-0.4-4.7 0-0.2q0-0.4 0.2-0.6 0.2-0.2 0.4-0.3 0.2-0.1 0.4-0.2 0.2-0.1 0.2-0.4 0-0.6-0.7-0.6-0.2 0-0.8 0.1-0.5 0-1.4 0-0.8 0-1.3 0-0.4 0-0.5 0-0.3 0-0.7-0.1-0.4-0.1-0.8-0.1-0.6 0-0.6 0.6 0 0.3 0.3 0.5 0.3 0.1 0.6 0.2 0.3 0.1 0.6 0.2 0.3 0.1 0.3 0.5 0 0.1 0 0.3 0 0.2 0.1 0.5l1.2 9.4-4.1 7.4-1.8-16.4z" class="b"/><path d="m235.4 253.3q0 1 0.4 1.5 0.4 0.5 1 0.5 0.9 0 1.6-1 0.6-1 0.6-2.4 0-0.8-0.4-1.2-0.4-0.5-1-0.5-0.4 0-0.8 0.3-0.4 0.3-0.7 0.7-0.3 0.4-0.5 1-0.2 0.6-0.2 1.1zm1.6 9.1q0.3-1 0.5-1.8 0.2-0.8 0.2-1.3 0-2-1.8-2-1 0-1.9 0.6-0.9 0.6-2.1 1.9-1 1.1-1.5 1.9-0.5 0.8-0.5 1 0 0.5 0.4 0.5 0.3 0 0.7-0.5 0.4-0.5 0.8-1.1 0.4-0.6 0.9-1.1 0.5-0.5 0.8-0.5 0.5 0 0.5 0.6 0 0.2-0.2 1.1l-2.5 8q-0.4 1.4-0.6 2.6-0.2 1.2-0.2 2 0 1.8 1.5 1.8 0.8 0 1.9-0.6 1-0.6 2.2-1.9 1-1.1 1.4-1.8 0.5-0.8 0.5-1 0-0.2-0.1-0.3-0.1-0.2-0.3-0.2-0.2 0-0.6 0.5-0.4 0.5-0.8 1.1-0.4 0.6-0.9 1-0.5 0.5-0.9 0.5-0.4 0-0.4-0.4 0-0.3 0.2-1.1 0.2-0.8 0.6-2.2l2.4-7.4z" class="b"/><path d="m246.1 263.8q-0.8-1-1.2-1.8-0.4-0.8-0.4-1.4 0-0.7 0.5-1.2 0.5-0.5 1.2-0.5 0.7 0 1.3 0.5 0.6 0.5 1.1 1.1 0.6 0.6 1.1 1.1 0.5 0.5 1 0.5 1.2 0 1.2-2.3 0-1.2-1.2-1.9-1.2-0.7-2.9-0.7-1.2 0-2.2 0.5-1.1 0.5-1.9 1.4-0.8 0.8-1.4 1.9-0.5 1-0.5 2 0 1.6 1.4 3.4l2.2 2.9q0.6 0.8 1 1.5 0.4 0.7 0.4 1.7 0 1-0.5 1.7-0.5 0.6-1.2 0.6-0.7 0-1.4-0.6-0.6-0.6-1.4-1.8-0.6-0.9-0.9-1.6-0.4-0.7-1-0.7-1.1 0-1.1 3 0 1.3 1.2 2.1 1.2 0.8 3.1 0.8 1.2 0 2.3-0.5 1.2-0.4 2-1.2 0.9-0.8 1.4-1.8 0.6-1 0.6-2.2 0-1.3-0.6-2.3-0.6-1-1.4-2.1l-1.9-2.5z" class="b"/><path d="m265.4 261.4q0.5-0.5 1-0.9 0.6-0.4 1-0.7 0.4-0.4 0.7-0.7 0.3-0.4 0.3-0.8 0-0.5-0.3-0.8-0.2-0.3-0.6-0.3-1.1 0-2.2 2.1-0.4 0.1-0.8 0.2-0.4 0-0.6 0-0.9 0-1.7-0.3-0.8-0.4-1.4-0.7-0.7-0.4-1.4-0.7-0.7-0.4-1.6-0.4-0.9 0-1.6 0.4-0.8 0.4-1.3 1.1-0.6 0.7-0.9 1.6-0.3 0.9-0.3 1.9 0 1.7 0.5 1.7 0.4 0 0.4-0.5 0-0.2 0-0.4 0-0.2 0-0.5 0-0.8 0.5-1.4 0.5-0.6 1.1-0.6 0.4 0 0.8 0.2 0.5 0.2 1 0.4 0.6 0.2 1.2 0.4 0.7 0.2 1.5 0.2 1.9 0 3.7-0.9-3.1 2.8-5.8 5.8-2.6 3-5 6.1-3.2 0.2-3.2 2.2 0 0.5 0.3 0.8 0.3 0.3 0.8 0.3 0.9 0 2.7-2.1l0.1 0q0.6 0 1.3 0.4 0.7 0.4 1.4 0.8 0.8 0.4 1.6 0.8 0.8 0.4 1.8 0.4 0.9 0 1.8-0.4 0.9-0.4 1.6-1.1 0.7-0.7 1.2-1.6 0.4-1 0.4-2 0-0.8-0.2-1.2-0.2-0.5-0.5-0.5-0.4 0-0.4 0.5 0 0.2 0.1 0.6 0.1 0.3 0.1 0.7 0 0.8-0.5 1.3-0.5 0.5-1.3 0.5-0.4 0-0.9-0.2-0.4-0.2-0.8-0.4-0.4-0.3-1-0.5-0.5-0.2-1.1-0.2-0.8 0-1.8 0.4-1 0.4-2.4 0.9 1.5-1.5 3-2.9 1.4-1.5 2.8-3l5.2-5.8z" class="b"/><path d="m283.6 263q0.7-2.2 0.7-3.6 0-1-0.6-1.6-0.6-0.6-1.8-0.6-2.1 0-4.3 2.2-2.2 2.2-4.4 6.6l0.6-2.2q0.4-1.6 0.6-2.8 0.2-1.2 0.2-2 0-0.8-0.4-1.2-0.4-0.4-1-0.4-1.6 0-3.8 2.6-1 1.1-1.5 1.9-0.4 0.8-0.4 1 0 0.4 0.3 0.4 0.2 0 0.6-0.5 0.4-0.5 0.8-1.1 0.4-0.6 0.9-1.1 0.4-0.5 0.8-0.5 0.4 0 0.4 0.4 0 0.6-0.7 3.2l-2.8 10.2q-0.1 0.4-0.2 0.7 0 0.2 0 0.3 0 0.2 0.2 0.4 0.2 0.2 0.4 0.2l1.6 0q0.6 0 0.9-0.3 0.3-0.4 0.6-1.2 0.3-0.8 0.7-2.2 0.4-1.4 1.3-3.4 1-2.3 2-4 1-1.7 2-2.8 1-1.2 1.7-1.7 0.8-0.6 1.2-0.6 0.8 0 0.8 1 0 0.3-0.1 0.8-0.1 0.4-0.3 1.1l-1.4 4.6q-0.8 2.7-1.2 4.5-0.4 1.8-0.4 2.8 0 1.9 1.6 1.9 1.1 0 2.2-1 1.2-1 2.6-2.9 0.7-0.9 1-1.6 0.3-0.7 0.3-0.9 0-0.4-0.4-0.4-0.4 0-0.6 0.5-0.2 0.5-0.6 1.2-0.7 1-1.2 1.6-0.5 0.5-1 0.5-0.5 0-0.5-0.8 0-0.4 0.1-0.8 0.1-0.4 0.3-1l2.4-7.6z" class="b"/><path d="m292.8 253.3q0 1 0.4 1.5 0.4 0.5 1 0.5 0.9 0 1.6-1 0.6-1 0.6-2.4 0-0.8-0.4-1.2-0.4-0.5-1-0.5-0.4 0-0.8 0.3-0.4 0.3-0.7 0.7-0.3 0.4-0.5 1-0.2 0.6-0.2 1.1zm1.6 9.1q0.3-1 0.5-1.8 0.2-0.8 0.2-1.3 0-2-1.8-2-1 0-1.9 0.6-0.9 0.6-2.1 1.9-1 1.1-1.5 1.9-0.5 0.8-0.5 1 0 0.5 0.4 0.5 0.3 0 0.7-0.5 0.4-0.5 0.8-1.1 0.4-0.6 0.9-1.1 0.5-0.5 0.8-0.5 0.5 0 0.5 0.6 0 0.2-0.2 1.1l-2.5 8q-0.4 1.4-0.6 2.6-0.2 1.2-0.2 2 0 1.8 1.5 1.8 0.8 0 1.9-0.6 1-0.6 2.2-1.9 1-1.1 1.4-1.8 0.5-0.8 0.5-1 0-0.2-0.1-0.3-0.1-0.2-0.3-0.2-0.2 0-0.6 0.5-0.4 0.5-0.8 1.1-0.4 0.6-0.9 1-0.5 0.5-0.9 0.5-0.4 0-0.4-0.4 0-0.3 0.2-1.1 0.2-0.8 0.6-2.2l2.4-7.4z" class="b"/><path d="m307 257.3q-1.8 0-3.6 0.9-1.7 0.8-3.1 2.4-1.4 1.5-2.2 3.6-0.8 2-0.8 4.4 0 1.7 0.4 3.1 0.5 1.4 1.3 2.5 0.8 1 2 1.6 1.2 0.6 2.6 0.6 1.8 0 3.6-0.9 1.8-0.9 3.1-2.4 1.4-1.6 2.2-3.6 0.9-2 0.9-4.2 0-1.8-0.5-3.3-0.5-1.5-1.4-2.5-0.9-1-2.1-1.6-1.2-0.6-2.6-0.6zm3 5.8q0 2.4-0.6 4.6-0.6 2.2-1.5 3.9-0.9 1.7-2 2.7-1.1 1-2.2 1-1.3 0-2.2-1.3-0.8-1.3-0.8-3.8 0-1.9 0.5-3.9 0.5-2 1.5-4.1 1-2 2.1-2.9 1.2-1 2.3-1 1.4 0 2.1 1.2 0.8 1.2 0.8 3.6z" class="b"/><path d="m322.2 261.8q0.2-0.8 0.4-1.4 0.2-0.6 0.2-1.2 0-0.9-0.5-1.4-0.4-0.5-1.2-0.5-0.9 0-1.9 0.6-1 0.6-1.8 1.5-0.8 0.8-1.4 1.8-0.5 0.9-0.5 1.5 0 0.3 0.4 0.3 0.2 0 0.6-0.5 0.4-0.5 0.8-1.1 0.4-0.6 0.8-1.2 0.4-0.5 0.9-0.5 0.4 0 0.4 0.4 0 0.3-0.2 0.9l-2 5.9q-0.6 1.7-0.8 3.1-0.2 1.4-0.2 2.4 0 1.8 0.7 2.8 0.8 1 2.1 1 1.9 0 3.7-1.8 1.8-1.8 3.7-5.6-0.8 2.6-0.8 4.3 0 1.5 0.7 2.3 0.7 0.8 2 0.8 4 0 7.8-6.3 0.8-1.4 1.4-2.7 0.6-1.4 1-2.7 0.4-1.3 0.6-2.4 0.2-1.2 0.2-2 0-1.3-0.4-2-0.4-0.7-1.1-0.7-0.6 0-1 0.6-0.4 0.6-0.4 1.6 0 0.5 0.1 1 0.2 0.5 0.3 0.9 0.2 0.4 0.3 0.9 0.2 0.4 0.2 0.9 0 0.5-0.2 1.3-0.2 0.8-0.5 1.9-0.3 1-0.9 2.1-0.5 1.1-1.3 2.2-1.2 1.7-2.3 2.5-1.1 0.8-1.9 0.8-1.4 0-1.4-1.8 0-0.6 0.2-1.8 0.2-1.2 0.7-3l1.4-5.1q0.6-2.1 0.9-3.2 0.4-1.1 0.4-1.4 0-0.4-0.6-0.5-0.6-0.1-1.7-0.1-0.6 0-0.8 0.3-0.2 0.3-0.4 0.8l-0.8 2.8q-2 6.4-4 9.6-2 3.2-3.6 3.2-1.1 0-1.1-1.3 0-0.7 0.2-1.4 0.2-0.8 0.5-1.8l2.4-7.7z" class="b"/><path d="m346.4 263.8q-0.8-1-1.2-1.8-0.4-0.8-0.4-1.4 0-0.7 0.5-1.2 0.5-0.5 1.2-0.5 0.7 0 1.3 0.5 0.6 0.5 1.1 1.1 0.6 0.6 1.1 1.1 0.5 0.5 1 0.5 1.2 0 1.2-2.3 0-1.2-1.2-1.9-1.2-0.7-2.9-0.7-1.2 0-2.2 0.5-1.1 0.5-1.9 1.4-0.8 0.8-1.4 1.9-0.5 1-0.5 2 0 1.6 1.4 3.4l2.2 2.9q0.6 0.8 1 1.5 0.4 0.7 0.4 1.7 0 1-0.5 1.7-0.5 0.6-1.2 0.6-0.7 0-1.4-0.6-0.6-0.6-1.4-1.8-0.6-0.9-0.9-1.6-0.4-0.7-1-0.7-1.1 0-1.1 3 0 1.3 1.2 2.1 1.2 0.8 3.1 0.8 1.2 0 2.3-0.5 1.2-0.4 2-1.2 0.9-0.8 1.4-1.8 0.6-1 0.6-2.2 0-1.3-0.6-2.3-0.6-1-1.4-2.1l-1.9-2.5z" class="b"/><path d="m362 249.6q0.1-0.5 0.2-0.8 0.1-0.4 0.1-0.6 0-0.6-0.6-0.6-0.2 0-0.4 0.2-0.2 0.1-0.7 0.3-0.4 0.2-1 0.4-0.6 0.2-1.5 0.2-0.8 0.1-1.4 0.1-0.5 0-0.5 0.7 0 0.4 0.3 0.4 0.3 0.1 0.6 0.2 0.4 0 0.6 0.2 0.3 0.1 0.3 0.6 0 0.2-0.1 0.7 0 0.4-0.2 0.9l-5.7 21.8q-0.1 0.6-0.1 0.8 0 0.7 0.8 0.7 0.7 0 1.2 0 0.5 0 0.8-0.2 0.3-0.2 0.4-0.4 0.2-0.3 0.3-0.7l0.5-2.2q0.4-1.5 0.6-2.5 0.3-1 0.5-1.5 0.9 0.4 1.2 1.2 0.4 0.7 0.7 1.8 0.5 1.4 0.9 2.3 0.4 1 1 1.6 0.5 0.6 1.2 0.9 0.6 0.3 1.6 0.3 1.8 0 2.9-1.2 1.1-1.2 1.1-2.8 0-1-0.5-1.6-0.4-0.6-1-0.6-0.8 0-0.8 0.8 0 0.3 0.2 0.6 0.2 0.2 0.4 0.5 0.2 0.2 0.4 0.5 0.2 0.2 0.2 0.6 0 0.5-0.3 0.9-0.3 0.3-0.8 0.3-0.7 0-1.1-0.6-0.4-0.6-0.8-1.6l-0.7-1.5q-0.2-0.5-0.6-1.2-0.4-0.7-1.2-1.6 4.2-0.6 6.4-2.4 2.1-1.8 2.1-4.7 0-1.7-0.8-2.6-0.8-1-2-1-1.9 0-4 1.8-2.1 1.8-4.4 5.4l3.9-14.8zm-4.4 17.7q1.9-3.8 3.7-5.7 1.8-1.9 3-1.9 0.6 0 1 0.5 0.4 0.4 0.4 1.2 0 1.1-0.6 2.2-0.6 1-1.6 1.9-1.1 0.8-2.6 1.4-1.5 0.5-3.3 0.5z" class="b"/><path d="m376.4 253.3q0 1 0.4 1.5 0.4 0.5 1 0.5 0.9 0 1.6-1 0.6-1 0.6-2.4 0-0.8-0.4-1.2-0.4-0.5-1-0.5-0.4 0-0.8 0.3-0.4 0.3-0.7 0.7-0.3 0.4-0.5 1-0.2 0.6-0.2 1.1zm1.6 9.1q0.3-1 0.5-1.8 0.2-0.8 0.2-1.3 0-2-1.8-2-1 0-1.9 0.6-0.9 0.6-2.1 1.9-1 1.1-1.5 1.9-0.5 0.8-0.5 1 0 0.5 0.4 0.5 0.3 0 0.7-0.5 0.4-0.5 0.8-1.1 0.4-0.6 0.9-1.1 0.5-0.5 0.8-0.5 0.5 0 0.5 0.6 0 0.2-0.2 1.1l-2.5 8q-0.4 1.4-0.6 2.6-0.2 1.2-0.2 2 0 1.8 1.5 1.8 0.8 0 1.9-0.6 1-0.6 2.2-1.9 1-1.1 1.4-1.8 0.5-0.8 0.5-1 0-0.2-0.1-0.3-0.1-0.2-0.3-0.2-0.2 0-0.6 0.5-0.4 0.5-0.8 1.1-0.4 0.6-0.9 1-0.5 0.5-0.9 0.5-0.4 0-0.4-0.4 0-0.3 0.2-1.1 0.2-0.8 0.6-2.2l2.4-7.4z" class="b"/><path d="m384.7 267.1q0.9-4.2 2.4-6.4 1.5-2.2 2.9-2.2 0.8 0 1.2 0.6 0.4 0.6 0.4 1.7 0 1.3-0.5 2.4-0.4 1.1-1.3 1.9-0.9 0.8-2.2 1.4-1.3 0.5-2.9 0.6zm-0.1 1.4q5.2-0.9 7.8-2.6 2.6-1.7 2.6-4.6 0-1.8-1.2-3-1.2-1.2-3.1-1.2-1.6 0-3.3 0.9-1.6 0.9-3.2 2.8-1.6 2-2.5 4.2-0.8 2.2-0.8 4.4 0 1.6 0.4 2.8 0.4 1.2 1.1 2.1 0.7 0.9 1.6 1.4 1 0.5 2 0.5 1.3 0 2.6-0.7 1.2-0.6 2.5-2.1 0.8-1 1.2-1.7 0.4-0.8 0.4-1.1 0-0.4-0.4-0.4-0.3 0-0.5 0.4-0.1 0.4-0.6 1-0.9 1-1.8 1.6-0.8 0.5-1.8 0.5-1.5 0-2.3-1.1-0.8-1.2-0.8-3.4 0-0.2 0-0.3 0-0.2 0-0.4z" class="b"/><path d="m407.7 258q-0.6 0-1.1-0.2-0.4-0.2-0.9-0.3-0.4-0.2-1-0.4-0.5-0.2-1.2-0.2-1.4 0-2.6 0.5-1.2 0.5-2.1 1.4-0.9 0.9-1.4 2.1-0.5 1.2-0.5 2.6 0 1.4 0.5 2.5 0.5 1 1.6 2-1 0.8-1.5 1.7-0.5 0.8-0.5 1.9 0 0.8 0.4 1.4 0.4 0.7 1 1.2-3 1-4.4 2.2-1.4 1.2-1.4 3 0 1.1 0.5 2.1 0.5 1 1.6 1.7 1 0.7 2.4 1.1 1.5 0.4 3.4 0.4 3.8 0 5.8-1.7 2.1-1.6 2.1-4.4 0-1.9-1.2-3.1-1.1-1.1-3.2-2.2l-2.3-1.2q-1.3-0.7-1.9-1.2-0.6-0.6-0.6-1.2 0-0.6 0.6-1.1 0.8 0.6 1.6 0.8 0.8 0.3 1.6 0.3 1.3 0 2.4-0.6 1.2-0.6 2-1.5 0.9-1 1.4-2.2 0.5-1.2 0.5-2.6 0-1.6-0.8-3.3l0.7 0q1.3 0 1.8-0.2 0.5-0.2 0.5-0.9 0-0.5-0.3-0.6-0.3-0.1-0.8-0.1l-2.8 0zm-3.7 0.2q1.1 0 1.8 0.8 0.7 0.8 0.7 2 0 0.9-0.4 2.5-0.4 1.6-1.1 3-0.6 1.2-1.3 1.7-0.7 0.5-1.5 0.5-1 0-1.8-0.8-0.7-0.9-0.7-2.1 0-1.4 0.3-2.8 0.4-1.4 0.9-2.4 0.6-1 1.4-1.7 0.8-0.6 1.7-0.6zm-4.7 17q3.2 1.4 4.8 2.7 1.6 1.3 1.6 2.3 0 1.5-1 2.4-1 0.9-2.8 0.9-1.3 0-2.4-0.4-1.2-0.4-2-1.1-0.8-0.6-1.4-1.5-0.5-0.8-0.5-1.8 0-1.4 0.9-2.2 1-0.8 2.9-1.3z" class="b"/><path d="m420.9 257.3q-1.8 0-3.6 0.9-1.7 0.8-3.1 2.4-1.4 1.5-2.2 3.6-0.8 2-0.8 4.4 0 1.7 0.4 3.1 0.5 1.4 1.3 2.5 0.8 1 2 1.6 1.2 0.6 2.6 0.6 1.8 0 3.6-0.9 1.8-0.9 3.1-2.4 1.4-1.6 2.2-3.6 0.9-2 0.9-4.2 0-1.8-0.5-3.3-0.5-1.5-1.4-2.5-0.9-1-2.1-1.6-1.2-0.6-2.6-0.6zm3 5.8q0 2.4-0.6 4.6-0.6 2.2-1.5 3.9-0.9 1.7-2 2.7-1.1 1-2.2 1-1.3 0-2.2-1.3-0.8-1.3-0.8-3.8 0-1.9 0.5-3.9 0.5-2 1.5-4.1 1-2 2.1-2.9 1.2-1 2.3-1 1.4 0 2.1 1.2 0.8 1.2 0.8 3.6z" class="b"/></g></g></svg>
